<svg xmlns="http://www.w3.org/2000/svg" viewBox="0 0 24 24"><defs><style>.cls-1{fill:none;}.cls-2{fill:#cb2e25;}</style></defs><g id="Capa_2" data-name="Capa 2"><g id="Capa_1-2" data-name="Capa 1"><rect class="cls-1" width="24" height="24"/><path id="trash-alt-solid" class="cls-2" d="M5.25,19.31A1.69,1.69,0,0,0,6.94,21H17.06a1.69,1.69,0,0,0,1.69-1.69h0V7.5H5.25Zm9.56-9a.57.57,0,0,1,1.13,0v7.88a.57.57,0,0,1-1.13,0Zm-3.37,0a.56.56,0,0,1,1.12,0v7.88a.56.56,0,0,1-1.12,0Zm-3.38,0a.57.57,0,0,1,1.13,0v7.88a.57.57,0,0,1-1.13,0ZM19.31,4.13H15.09l-.33-.66A.83.83,0,0,0,14,3H10a.83.83,0,0,0-.75.47l-.33.66H4.69a.56.56,0,0,0-.56.56h0V5.81a.57.57,0,0,0,.56.57H19.31a.57.57,0,0,0,.56-.57h0V4.69a.56.56,0,0,0-.56-.56Z"/></g></g></svg>