<svg xmlns="http://www.w3.org/2000/svg" viewBox="0 0 24 24"><defs><style>.cls-1{fill:none;}.cls-2{fill:#fff;}</style></defs><g id="Capa_2" data-name="Capa 2"><g id="Capa_1-2" data-name="Capa 1"><rect class="cls-1" width="24" height="24"/><path id="list-solid" class="cls-2" d="M5.81,15.94H3.56A.56.56,0,0,0,3,16.5v2.25a.56.56,0,0,0,.56.56H5.81a.56.56,0,0,0,.56-.56V16.5A.56.56,0,0,0,5.81,15.94Zm0-11.25H3.56A.56.56,0,0,0,3,5.25V7.5a.56.56,0,0,0,.56.56H5.81a.56.56,0,0,0,.56-.56V5.25A.56.56,0,0,0,5.81,4.69Zm0,5.62H3.56a.56.56,0,0,0-.56.56v2.25a.56.56,0,0,0,.56.57H5.81a.56.56,0,0,0,.56-.57V10.87a.56.56,0,0,0-.56-.56ZM20.44,16.5H9.19a.57.57,0,0,0-.57.56v1.13a.57.57,0,0,0,.57.56H20.44a.56.56,0,0,0,.56-.56V17.06a.56.56,0,0,0-.56-.56Zm0-11.25H9.19a.57.57,0,0,0-.57.56V6.94a.57.57,0,0,0,.57.56H20.44A.56.56,0,0,0,21,6.94V5.81a.56.56,0,0,0-.56-.56Zm0,5.62H9.19a.58.58,0,0,0-.57.57v1.12a.57.57,0,0,0,.57.56H20.44a.56.56,0,0,0,.56-.56V11.44a.57.57,0,0,0-.56-.57Z"/></g></g></svg>