<svg xmlns="http://www.w3.org/2000/svg" viewBox="0 0 24 24"><defs><style>.cls-1{fill:none;}.cls-2{fill:#00acc1;}</style></defs><g id="Capa_2" data-name="Capa 2"><g id="Capa_1-2" data-name="Capa 1"><g id="Capa_2-2" data-name="Capa 2"><g id="Capa_1-2-2" data-name="Capa 1-2"><rect class="cls-1" width="24" height="24"/><path class="cls-2" d="M20.44,13.59,22.1,6.28a.84.84,0,0,0-.82-1H7.47L7.15,3.67A.85.85,0,0,0,6.32,3H2.72a.85.85,0,0,0-.85.84v.57a.85.85,0,0,0,.85.84H5.18L7.65,17.32A2,2,0,1,0,10.59,19a1.92,1.92,0,0,0-.59-1.4h7.37a2,2,0,1,0,2.24-.37l.19-.85a.84.84,0,0,0-.82-1H9.54l-.23-1.13H19.62A.84.84,0,0,0,20.44,13.59Z"/></g></g></g></g></svg>