<svg xmlns="http://www.w3.org/2000/svg" viewBox="0 0 24 24"><defs><style>.cls-1{fill:none;}.cls-2{fill:#5cb85c;}</style></defs><g id="Capa_2" data-name="Capa 2"><g id="Capa_1-2" data-name="Capa 1"><rect class="cls-1" width="24" height="24"/><path id="edit-solid" class="cls-2" d="M16,5.92,19.2,9.09a.34.34,0,0,1,0,.49l-7.68,7.68-3.26.36A.69.69,0,0,1,7.5,17v-.16l.37-3.26,7.68-7.68a.34.34,0,0,1,.48,0Zm5.7-.8L20,3.4a1.38,1.38,0,0,0-1.94,0L16.82,4.65a.34.34,0,0,0,0,.48L20,8.3a.34.34,0,0,0,.48,0l1.25-1.25a1.38,1.38,0,0,0,0-1.94ZM15.37,15.17v3.58H4.12V7.5H12.2a.45.45,0,0,0,.3-.12L13.91,6a.42.42,0,0,0,0-.6.42.42,0,0,0-.3-.12h-10A1.69,1.69,0,0,0,1.87,6.93V19.31A1.69,1.69,0,0,0,3.56,21H15.94a1.69,1.69,0,0,0,1.69-1.69V13.76a.42.42,0,0,0-.43-.42.38.38,0,0,0-.29.12L15.5,14.87A.43.43,0,0,0,15.37,15.17Z"/></g></g></svg>