<svg xmlns="http://www.w3.org/2000/svg" viewBox="0 0 280 180"><defs><style>.cls-1{fill:#5cb85c;}.cls-2{fill:#fff;}</style></defs><g id="Capa_2" data-name="Capa 2"><g id="Capa_1-2" data-name="Capa 1"><path id="Trazado_70" data-name="Trazado 70" class="cls-1" d="M3.46,0H276.54c1.84-.08,3.39,1.71,3.46,4V180H0V4C.07,1.71,1.62-.08,3.46,0Z"/><path id="Trazado_71" data-name="Trazado 71" class="cls-2" d="M206.88,35.18l-21-14A7,7,0,0,0,182,20H98a7,7,0,0,0-3.88,1.18l-21,14A7,7,0,0,0,70,41V153a7,7,0,0,0,7,7H203a7,7,0,0,0,7-7V41A7,7,0,0,0,206.88,35.18ZM182,27l15.75,10.5H154V27Zm-35,0V37.5H133V27ZM133,44.5h14V83H133ZM98,27h28V37.5H82.25ZM203,153H77V44.5h49V90h28V44.5h49Z"/></g></g></svg>