<svg xmlns="http://www.w3.org/2000/svg" viewBox="0 0 280 180"><defs><style>.cls-1{fill:#31b0d5;}.cls-2{fill:#fff;}</style></defs><g id="Capa_2" data-name="Capa 2"><g id="Capa_1-2" data-name="Capa 1"><path id="Trazado_70" data-name="Trazado 70" class="cls-1" d="M3.46,0H276.54c1.84-.08,3.39,1.71,3.46,4V180H0V4C.07,1.71,1.62-.08,3.46,0Z"/><g id="Grupo_42" data-name="Grupo 42"><g id="Grupo_42-2" data-name="Grupo 42-2"><path id="Trazado_72" data-name="Trazado 72" class="cls-2" d="M203,20H77a7,7,0,0,0-7,7v91a7,7,0,0,0,7,7h45.64l-17.17,29.75a3.5,3.5,0,1,0,6,3.54l0,0L130.73,125h18.54l19.2,33.25a3.5,3.5,0,0,0,6.09-3.46l0,0L157.36,125H203a7,7,0,0,0,7-7V27a7,7,0,0,0-7-7Zm0,98H77V27H203Z"/></g><g id="Grupo_43" data-name="Grupo 43"><path id="Trazado_73" data-name="Trazado 73" class="cls-2" d="M98,100.49a3.5,3.5,0,0,0,2.92-1.56l25.88-38.82,32,25.61a3.5,3.5,0,0,0,4.92-.54,4.56,4.56,0,0,0,.27-.39l21-35A3.5,3.5,0,1,0,179.14,46a1.76,1.76,0,0,0-.14.23L160.06,77.75l-31.87-25.5a3.51,3.51,0,0,0-4.92.55,1.44,1.44,0,0,0-.18.25l-28,42a3.5,3.5,0,0,0,2.9,5.44Z"/></g></g></g></g></svg>