<svg xmlns="http://www.w3.org/2000/svg" viewBox="0 0 280 180"><defs><style>.cls-1{fill:#01549b;}.cls-2{fill:#fff;}</style></defs><g id="Capa_2" data-name="Capa 2"><g id="Capa_1-2" data-name="Capa 1"><path id="Trazado_70" data-name="Trazado 70" class="cls-1" d="M3.46,0H276.54c1.84-.08,3.39,1.71,3.46,4V180H0V4C.07,1.71,1.62-.08,3.46,0Z"/><g id="Grupo_40" data-name="Grupo 40"><g id="Grupo_26" data-name="Grupo 26"><path id="Trazado_61" data-name="Trazado 61" class="cls-2" d="M140,64.74a22.37,22.37,0,1,0-22.37-22.37h0A22.37,22.37,0,0,0,140,64.74Zm0-37.28a14.91,14.91,0,1,1-14.91,14.91h0A14.93,14.93,0,0,1,140,27.46Z"/></g><g id="Grupo_27" data-name="Grupo 27"><path id="Trazado_62" data-name="Trazado 62" class="cls-2" d="M154.91,63.07H125.09a7.45,7.45,0,0,0-7.34,6.12l-7.46,41a7.45,7.45,0,0,0,7.34,8.79h4.76l2.72,34.14a7.46,7.46,0,0,0,7.43,6.87h14.92a7.46,7.46,0,0,0,7.43-6.87L157.6,119h4.77a7.46,7.46,0,0,0,7.33-8.79l-7.45-41A7.45,7.45,0,0,0,154.91,63.07Zm-4.19,48.46-3.26,41H132.54l-3.26-41H117.63l7.46-41h11.18V92.89a3.73,3.73,0,0,0,7.46,0V70.52h11.18l7.46,41Z"/></g><g id="Grupo_28" data-name="Grupo 28"><path id="Trazado_63" data-name="Trazado 63" class="cls-2" d="M181.94,63.25A17.9,17.9,0,1,0,164,45.35a17.91,17.91,0,0,0,17.9,17.9Zm0-29.83A11.93,11.93,0,1,1,170,45.35,11.93,11.93,0,0,1,181.94,33.42Z"/></g><g id="Grupo_29" data-name="Grupo 29"><path id="Trazado_64" data-name="Trazado 64" class="cls-2" d="M199.74,67.84a6,6,0,0,0-5.87-4.9H170a5.92,5.92,0,0,0-5.74,4.54,14.62,14.62,0,0,1,1,3.23l2.2,12.06L170,68.9h9V86.8a3,3,0,1,0,6,.11v-18h9l6,32.81h-9.32l-2.61,32.81H176l-3-16.4-4.47,7.46L170,135a6,6,0,0,0,5.94,5.49H187.9a6,6,0,0,0,5.95-5.49L196,107.68h3.81a6,6,0,0,0,6-6,5.44,5.44,0,0,0-.1-1.06Z"/></g><g id="Grupo_30" data-name="Grupo 30"><path id="Trazado_65" data-name="Trazado 65" class="cls-2" d="M98.06,63.25a17.9,17.9,0,1,0-17.9-17.9,17.9,17.9,0,0,0,17.9,17.9Zm0-29.83A11.93,11.93,0,1,1,86.13,45.35,11.93,11.93,0,0,1,98.06,33.42Z"/></g><g id="Grupo_31" data-name="Grupo 31"><path id="Trazado_66" data-name="Trazado 66" class="cls-2" d="M98.06,89.78a3,3,0,0,0,3-3h0V68.9H110l2.52,13.87,2.2-12.06a14.79,14.79,0,0,1,1-3.23A5.93,5.93,0,0,0,110,62.94H86.13a6,6,0,0,0-5.87,4.9l-6,32.81a6,6,0,0,0,4.8,6.93,5.46,5.46,0,0,0,1.07.1H84L86.15,135a6,6,0,0,0,5.95,5.49H104A6,6,0,0,0,110,135l1.51-9.42L107,118.11l-3,16.4H92.09l-2.61-32.8H80.16l6-32.81h9V86.8a3,3,0,0,0,3,3Z"/></g></g></g></g></svg>