<svg xmlns="http://www.w3.org/2000/svg" viewBox="0 0 280 180"><defs><style>.cls-1{fill:#ee9800;}.cls-2{fill:#fff;}</style></defs><g id="Capa_2" data-name="Capa 2"><g id="Capa_1-2" data-name="Capa 1"><path id="Trazado_70" data-name="Trazado 70" class="cls-1" d="M3.46,0H276.54c1.84-.08,3.39,1.71,3.46,4V180H0V4C.07,1.71,1.62-.08,3.46,0Z"/><g id="Grupo_41" data-name="Grupo 41"><g id="Grupo_18" data-name="Grupo 18"><g id="Grupo_17" data-name="Grupo 17"><path id="Trazado_56" data-name="Trazado 56" class="cls-2" d="M206.5,160H73.5c-1.94,0-3.5-.89-3.5-2s1.56-2,3.5-2h133c1.94,0,3.5.9,3.5,2S208.44,160,206.5,160Z"/></g></g><g id="Grupo_19" data-name="Grupo 19"><path id="Trazado_57" data-name="Trazado 57" class="cls-2" d="M82,124H78a4,4,0,0,0-4,4v20a4,4,0,0,0,4,4h4a4,4,0,0,0,4-4V128A4,4,0,0,0,82,124Zm-4,24V128h4v20Z"/></g><g id="Grupo_20" data-name="Grupo 20"><path id="Trazado_58" data-name="Trazado 58" class="cls-2" d="M123.18,100h-4a4,4,0,0,0-4,4v44a4,4,0,0,0,4,4h4a4,4,0,0,0,4-4V104A4,4,0,0,0,123.18,100Zm-4,48V104h4v44Z"/></g><g id="Grupo_21" data-name="Grupo 21"><path id="Trazado_59" data-name="Trazado 59" class="cls-2" d="M160.82,108h-4a4,4,0,0,0-4,4v36a4,4,0,0,0,4,4h4a4,4,0,0,0,4-4V112A4,4,0,0,0,160.82,108Zm-4,40V112h4v36Z"/></g><g id="Grupo_22" data-name="Grupo 22"><path id="Trazado_60" data-name="Trazado 60" class="cls-2" d="M202,20h-4c-2.21,0-4,3.29-4,7.33V144.67c0,4.05,1.79,7.33,4,7.33h4c2.21,0,4-3.28,4-7.33V27.33C206,23.29,204.21,20,202,20Zm-4,124.67V27.33h4V144.67Z"/></g></g></g></g></svg>