<svg xmlns="http://www.w3.org/2000/svg" viewBox="0 0 1057.5 131.36"><defs><style>.cls-1{fill:#fff;}</style></defs><g id="Capa_2" data-name="Capa 2"><g id="Capa_1-2" data-name="Capa 1"><path class="cls-1" d="M35.32,9.16A16.11,16.11,0,0,0,25.6,6.4a23.26,23.26,0,0,0-4.72.48,12.43,12.43,0,0,0-4.12,1.6,8.45,8.45,0,0,0-2.88,3,9.26,9.26,0,0,0-1.08,4.68,6,6,0,0,0,1.56,4.28,11.6,11.6,0,0,0,4.16,2.68,34.8,34.8,0,0,0,5.88,1.72c2.19.45,4.41.95,6.68,1.48s4.49,1.16,6.68,1.88a21.84,21.84,0,0,1,5.88,2.92,13.93,13.93,0,0,1,4.16,4.64,14.32,14.32,0,0,1,1.56,7,14.34,14.34,0,0,1-2,7.8,16.82,16.82,0,0,1-5.24,5.28,22.69,22.69,0,0,1-7.16,3,34.94,34.94,0,0,1-7.88.92A33.47,33.47,0,0,1,18,58.56a22.39,22.39,0,0,1-7.52-3.64,17.28,17.28,0,0,1-5.12-6.24,20.11,20.11,0,0,1-1.88-9h7.2a12.93,12.93,0,0,0,1.4,6.2,12.72,12.72,0,0,0,3.68,4.28A15.44,15.44,0,0,0,21,52.64a24.6,24.6,0,0,0,6.24.8A28.32,28.32,0,0,0,32.44,53a15.35,15.35,0,0,0,4.68-1.64,9.26,9.26,0,0,0,3.36-3.16A9.36,9.36,0,0,0,41.76,43a7.18,7.18,0,0,0-1.56-4.8,11.42,11.42,0,0,0-4.16-3,30.54,30.54,0,0,0-5.88-1.88l-6.68-1.48c-2.27-.51-4.49-1.09-6.68-1.76a24.32,24.32,0,0,1-5.88-2.64,12.68,12.68,0,0,1-4.16-4.24A12.49,12.49,0,0,1,5.2,16.72,15.18,15.18,0,0,1,7,9.24,15.29,15.29,0,0,1,11.64,4a21.11,21.11,0,0,1,6.64-3,29.18,29.18,0,0,1,7.64-1,30.69,30.69,0,0,1,8.16,1,18.42,18.42,0,0,1,6.6,3.28A15.76,15.76,0,0,1,45.16,10,20.25,20.25,0,0,1,47,18.08h-7.2Q39.11,11.92,35.32,9.16Z"/><path class="cls-1" d="M57.84,9.68V1.36h6.8V9.68Zm6.8,7.44V58.48h-6.8V17.12Z"/><path class="cls-1" d="M80.4,49.24a7.21,7.21,0,0,0,2.52,2.48A11.47,11.47,0,0,0,86.44,53a19.91,19.91,0,0,0,4,.4,24.93,24.93,0,0,0,3.36-.24,12.26,12.26,0,0,0,3.24-.88,6.06,6.06,0,0,0,2.44-1.88,5,5,0,0,0,1-3.16,4.54,4.54,0,0,0-2-4,16.89,16.89,0,0,0-5-2.2q-3-.84-6.52-1.52a33.3,33.3,0,0,1-6.52-1.92,13.55,13.55,0,0,1-5-3.48,9,9,0,0,1-2-6.24,9.93,9.93,0,0,1,1.4-5.36,11.38,11.38,0,0,1,3.6-3.64,16.56,16.56,0,0,1,5-2.08,23,23,0,0,1,5.48-.68,32.61,32.61,0,0,1,6.48.6,15,15,0,0,1,5.24,2.08,10.82,10.82,0,0,1,3.64,4,15.13,15.13,0,0,1,1.6,6.28H99a7,7,0,0,0-1-3.32,6.78,6.78,0,0,0-2.24-2.12,10.34,10.34,0,0,0-3-1.16,15.42,15.42,0,0,0-3.32-.36,20.27,20.27,0,0,0-3.08.24,10.34,10.34,0,0,0-2.84.84,5.68,5.68,0,0,0-2.08,1.6,4.05,4.05,0,0,0-.8,2.6,3.82,3.82,0,0,0,1.24,2.92A10.06,10.06,0,0,0,85,32.28a27.69,27.69,0,0,0,4.32,1.28q2.4.52,4.8,1.08a51.06,51.06,0,0,1,5,1.36,16.1,16.1,0,0,1,4.32,2.12,10.39,10.39,0,0,1,3,3.32,9.79,9.79,0,0,1,1.16,5,11.5,11.5,0,0,1-1.56,6.24,12.19,12.19,0,0,1-4.08,4,17.1,17.1,0,0,1-5.68,2.12,33.63,33.63,0,0,1-6.28.6,29.12,29.12,0,0,1-6.56-.72A16.16,16.16,0,0,1,78,56.28,12,12,0,0,1,74.16,52a15,15,0,0,1-1.6-6.52h6.8A7.63,7.63,0,0,0,80.4,49.24Z"/><path class="cls-1" d="M115.6,9.68V1.36h6.8V9.68Zm6.8,7.44V58.48h-6.8V17.12Z"/><path class="cls-1" d="M150.64,17.12v6H142.4V48.8a7.14,7.14,0,0,0,.2,1.92,1.94,1.94,0,0,0,.76,1.12,3.29,3.29,0,0,0,1.56.52,22.56,22.56,0,0,0,2.6.12h3.12v6h-5.2a24.39,24.39,0,0,1-4.52-.36,6.59,6.59,0,0,1-3-1.32,5.58,5.58,0,0,1-1.72-2.72,15.48,15.48,0,0,1-.56-4.64V23.12h-7v-6h7V4.72h6.8v12.4Z"/><path class="cls-1" d="M187.44,55.84a18.77,18.77,0,0,1-11.68,3.52,21.16,21.16,0,0,1-8.6-1.6A16.94,16.94,0,0,1,161,53.28a18.81,18.81,0,0,1-3.72-6.88,32.75,32.75,0,0,1-1.4-8.72A24.86,24.86,0,0,1,157.36,29a20.57,20.57,0,0,1,4-6.8,18.28,18.28,0,0,1,6.16-4.48,18.73,18.73,0,0,1,7.8-1.6,17,17,0,0,1,9.16,2.28,18.18,18.18,0,0,1,5.84,5.8,23.12,23.12,0,0,1,3,7.68,33.24,33.24,0,0,1,.68,7.92h-31a16.25,16.25,0,0,0,.64,5.16,11.59,11.59,0,0,0,2.32,4.32,11.41,11.41,0,0,0,4.08,3A14,14,0,0,0,176,53.44a11.79,11.79,0,0,0,7.08-2,9.67,9.67,0,0,0,3.64-6.08h6.72Q192.08,52.32,187.44,55.84ZM185.8,29.28A11.58,11.58,0,0,0,175,22.16a11.89,11.89,0,0,0-4.76.92,10.8,10.8,0,0,0-3.64,2.52,11.89,11.89,0,0,0-2.4,3.72,13.88,13.88,0,0,0-1,4.52h23.76A14.08,14.08,0,0,0,185.8,29.28Z"/><path class="cls-1" d="M207.51,17.12V23.2h.16A16.13,16.13,0,0,1,228,17.76a9,9,0,0,1,4.4,5.44,14.39,14.39,0,0,1,5.48-5.2,15.38,15.38,0,0,1,7.48-1.84,21.8,21.8,0,0,1,5.64.68A11.72,11.72,0,0,1,255.32,19a9.74,9.74,0,0,1,2.8,3.72,13.72,13.72,0,0,1,1,5.48V58.48h-6.8V31.36a19.52,19.52,0,0,0-.32-3.6,7.43,7.43,0,0,0-1.21-2.92,5.89,5.89,0,0,0-2.43-2,9.71,9.71,0,0,0-4-.72A10.7,10.7,0,0,0,236.4,25a10.39,10.39,0,0,0-2.89,7.68V58.48h-6.8V31.36a18.32,18.32,0,0,0-.35-3.68,7.94,7.94,0,0,0-1.24-2.92,5.77,5.77,0,0,0-2.37-1.92,9.15,9.15,0,0,0-3.79-.68,10.13,10.13,0,0,0-5.08,1.2,11.43,11.43,0,0,0-3.44,2.88,11.59,11.59,0,0,0-1.93,3.48,10.12,10.12,0,0,0-.59,3V58.48h-6.8V17.12Z"/><path class="cls-1" d="M306,58.31a9.56,9.56,0,0,1-4.88,1,5.84,5.84,0,0,1-4.2-1.48q-1.56-1.49-1.56-4.84a16.28,16.28,0,0,1-6.53,4.84,22.49,22.49,0,0,1-13.35.84,12.23,12.23,0,0,1-4.36-2,9.57,9.57,0,0,1-2.92-3.56,12,12,0,0,1-1.08-5.32,12.13,12.13,0,0,1,1.2-5.76,10.44,10.44,0,0,1,3.16-3.64A14.48,14.48,0,0,1,276,36.32q2.52-.72,5.16-1.2,2.79-.55,5.32-.84a29.64,29.64,0,0,0,4.44-.8,7.42,7.42,0,0,0,3-1.52A3.74,3.74,0,0,0,295,29a6.9,6.9,0,0,0-.84-3.6A5.74,5.74,0,0,0,292,23.36a8.81,8.81,0,0,0-3-1,22.52,22.52,0,0,0-3.25-.24,14.4,14.4,0,0,0-7.19,1.64q-2.88,1.64-3.12,6.2h-6.8a14.6,14.6,0,0,1,1.6-6.48,12.1,12.1,0,0,1,3.84-4.28,16,16,0,0,1,5.48-2.36,28.9,28.9,0,0,1,6.6-.72,38.07,38.07,0,0,1,5.55.4,14.44,14.44,0,0,1,5,1.64,9.54,9.54,0,0,1,3.61,3.47,11.16,11.16,0,0,1,1.35,5.83V48.73a15.43,15.43,0,0,0,.29,3.51c.18.75.81,1.12,1.88,1.12A6.67,6.67,0,0,0,306,53ZM295,37a8.5,8.5,0,0,1-3.36,1.4c-1.39.29-2.85.53-4.36.72s-3.06.4-4.6.64A16.93,16.93,0,0,0,278.48,41a7.46,7.46,0,0,0-3,2.28,6.34,6.34,0,0,0-1.16,4,5.46,5.46,0,0,0,.68,2.84A5.74,5.74,0,0,0,276.75,52a7.45,7.45,0,0,0,2.53,1,14.17,14.17,0,0,0,3,.32,16.18,16.18,0,0,0,5.76-.92A12.19,12.19,0,0,0,292,50.12a9.34,9.34,0,0,0,2.24-3A7.68,7.68,0,0,0,295,44Z"/><path class="cls-1" d="M364.71,58.48v-5.6h-.16a10,10,0,0,1-5.28,5,20.18,20.18,0,0,1-7.92,1.52A18.72,18.72,0,0,1,343,57.6a17.3,17.3,0,0,1-5.92-4.72A20.63,20.63,0,0,1,333.51,46a28.27,28.27,0,0,1-1.2-8.32,29.3,29.3,0,0,1,1.16-8.32A19.82,19.82,0,0,1,337,22.52a17,17,0,0,1,5.93-4.64,18.74,18.74,0,0,1,8.27-1.72,20.39,20.39,0,0,1,3.44.32,16.92,16.92,0,0,1,3.68,1.08,15.53,15.53,0,0,1,3.48,2,10.75,10.75,0,0,1,2.76,3.08h.16V1.36h6.8V58.48ZM340.27,43.8a15.29,15.29,0,0,0,2.32,4.92,11.39,11.39,0,0,0,4,3.44,12.21,12.21,0,0,0,5.72,1.28,11.22,11.22,0,0,0,9.76-4.92,14.69,14.69,0,0,0,2.2-5,24.22,24.22,0,0,0,0-11.56A14.58,14.58,0,0,0,362,27a11.55,11.55,0,0,0-4-3.48,12.66,12.66,0,0,0-6-1.32,11.66,11.66,0,0,0-5.85,1.36,10.89,10.89,0,0,0-3.84,3.6,15.7,15.7,0,0,0-2.08,5.12,27.6,27.6,0,0,0-.64,5.92A21.42,21.42,0,0,0,340.27,43.8Z"/><path class="cls-1" d="M411.27,55.84a18.73,18.73,0,0,1-11.68,3.52,21.22,21.22,0,0,1-8.6-1.6,17.11,17.11,0,0,1-6.12-4.48,19.1,19.1,0,0,1-3.72-6.88,33.57,33.57,0,0,1-1.4-8.72A24.86,24.86,0,0,1,381.19,29a20.74,20.74,0,0,1,4-6.8,18.48,18.48,0,0,1,6.16-4.48,18.8,18.8,0,0,1,7.8-1.6,17,17,0,0,1,9.16,2.28,18,18,0,0,1,5.84,5.8,22.91,22.91,0,0,1,3,7.68,32.73,32.73,0,0,1,.68,7.92H387a16.54,16.54,0,0,0,.64,5.16,11.73,11.73,0,0,0,2.32,4.32,11.59,11.59,0,0,0,4.08,3,14.05,14.05,0,0,0,5.84,1.12,11.79,11.79,0,0,0,7.08-2,9.63,9.63,0,0,0,3.64-6.08h6.72Q415.92,52.32,411.27,55.84Zm-1.64-26.56a11.58,11.58,0,0,0-10.84-7.12,11.92,11.92,0,0,0-4.76.92,11,11,0,0,0-3.64,2.52,12.26,12.26,0,0,0-2.4,3.72,14.41,14.41,0,0,0-1,4.52h23.76A13.59,13.59,0,0,0,409.63,29.28Z"/><path class="cls-1" d="M30.64,73.36,53,130.48h-8.4l-6.24-17.2H14.16l-6.4,17.2H0L22.24,73.36Zm5.28,33.52L26.4,80.24h-.16l-9.68,26.64Z"/><path class="cls-1" d="M87.6,130.48v-5.6h-.16a10,10,0,0,1-5.28,5,20.22,20.22,0,0,1-7.92,1.52,18.69,18.69,0,0,1-8.36-1.76A17.2,17.2,0,0,1,60,124.88,20.63,20.63,0,0,1,56.4,118a28.27,28.27,0,0,1-1.2-8.32,29.3,29.3,0,0,1,1.16-8.32,19.65,19.65,0,0,1,3.52-6.84,17,17,0,0,1,5.92-4.64,18.76,18.76,0,0,1,8.28-1.72,20.48,20.48,0,0,1,3.44.32,17.08,17.08,0,0,1,3.68,1.08,15.53,15.53,0,0,1,3.48,2,11.06,11.06,0,0,1,2.76,3.08h.16V73.36h6.8v57.12ZM63.16,115.8a15.29,15.29,0,0,0,2.32,4.92,11.31,11.31,0,0,0,4,3.44,12.19,12.19,0,0,0,5.72,1.28A11.22,11.22,0,0,0,85,120.52a14.89,14.89,0,0,0,2.2-5,24.18,24.18,0,0,0,.68-5.68,23.8,23.8,0,0,0-.72-5.88,14.58,14.58,0,0,0-2.28-5,11.68,11.68,0,0,0-4-3.48,12.6,12.6,0,0,0-6-1.32A11.65,11.65,0,0,0,69,95.52a10.89,10.89,0,0,0-3.84,3.6A15.7,15.7,0,0,0,63,104.24a27,27,0,0,0-.64,5.92A21,21,0,0,0,63.16,115.8Z"/><path class="cls-1" d="M111.28,89.12V95.2h.16a16.12,16.12,0,0,1,20.32-5.44,9,9,0,0,1,4.4,5.44,14.39,14.39,0,0,1,5.48-5.2,15.43,15.43,0,0,1,7.48-1.84,21.8,21.8,0,0,1,5.64.68A11.65,11.65,0,0,1,159.08,91a9.64,9.64,0,0,1,2.8,3.72,13.72,13.72,0,0,1,1,5.48v30.32h-6.8V103.36a19.52,19.52,0,0,0-.32-3.6,7.42,7.42,0,0,0-1.2-2.92,6,6,0,0,0-2.44-2,9.71,9.71,0,0,0-4-.72A10.7,10.7,0,0,0,140.16,97a10.38,10.38,0,0,0-2.88,7.68v25.76h-6.8V103.36a17.6,17.6,0,0,0-.36-3.68,7.94,7.94,0,0,0-1.24-2.92,5.8,5.8,0,0,0-2.36-1.92,9.23,9.23,0,0,0-3.8-.68,10.15,10.15,0,0,0-5.08,1.2,11.43,11.43,0,0,0-3.44,2.88,11.55,11.55,0,0,0-1.92,3.48,9.87,9.87,0,0,0-.6,3v25.76h-6.8V89.12Z"/><path class="cls-1" d="M173.52,81.68V73.36h6.8v8.32Zm6.8,7.44v41.36h-6.8V89.12Z"/><path class="cls-1" d="M197.28,89.12v6.56h.16q4.23-7.52,13.44-7.52a17.91,17.91,0,0,1,6.8,1.12,11.27,11.27,0,0,1,4.4,3.12,11.65,11.65,0,0,1,2.36,4.76,25.77,25.77,0,0,1,.68,6.12v27.2h-6.8v-28a8.22,8.22,0,0,0-2.24-6.08,8.35,8.35,0,0,0-6.16-2.24,13.86,13.86,0,0,0-5.4,1,10.14,10.14,0,0,0-3.8,2.72,11.51,11.51,0,0,0-2.28,4.12,16.62,16.62,0,0,0-.76,5.16v23.36h-6.8V89.12Z"/><path class="cls-1" d="M235.76,81.68V73.36h6.8v8.32Zm6.8,7.44v41.36h-6.8V89.12Z"/><path class="cls-1" d="M258.32,121.24a7.21,7.21,0,0,0,2.52,2.48,11.47,11.47,0,0,0,3.52,1.32,19.84,19.84,0,0,0,4,.4,25,25,0,0,0,3.36-.24,12.26,12.26,0,0,0,3.24-.88,6.13,6.13,0,0,0,2.44-1.88,5,5,0,0,0,1-3.16,4.54,4.54,0,0,0-2-4,17,17,0,0,0-5-2.2c-2-.56-4.18-1.07-6.52-1.52a33.3,33.3,0,0,1-6.52-1.92,13.55,13.55,0,0,1-5-3.48,9,9,0,0,1-2-6.24,9.84,9.84,0,0,1,1.4-5.36,11.38,11.38,0,0,1,3.6-3.64,16.46,16.46,0,0,1,5-2.08,23,23,0,0,1,5.48-.68,32.75,32.75,0,0,1,6.48.6,15,15,0,0,1,5.24,2.08,10.82,10.82,0,0,1,3.64,4,15.28,15.28,0,0,1,1.6,6.28H277a7,7,0,0,0-1-3.32,6.87,6.87,0,0,0-2.24-2.12,10.34,10.34,0,0,0-3-1.16,15.49,15.49,0,0,0-3.32-.36,20.17,20.17,0,0,0-3.08.24,10.34,10.34,0,0,0-2.84.84,5.6,5.6,0,0,0-2.08,1.6,4,4,0,0,0-.8,2.6,3.82,3.82,0,0,0,1.24,2.92,9.94,9.94,0,0,0,3.16,1.92,27.69,27.69,0,0,0,4.32,1.28q2.4.52,4.8,1.08c1.7.37,3.37.83,5,1.36a16.4,16.4,0,0,1,4.32,2.12,10.51,10.51,0,0,1,3,3.32,9.79,9.79,0,0,1,1.16,5,11.5,11.5,0,0,1-1.56,6.24,12.19,12.19,0,0,1-4.08,4,17.18,17.18,0,0,1-5.68,2.12,33.63,33.63,0,0,1-6.28.6,29.05,29.05,0,0,1-6.56-.72,16.16,16.16,0,0,1-5.52-2.36,12,12,0,0,1-3.84-4.32,14.89,14.89,0,0,1-1.6-6.52h6.8A7.63,7.63,0,0,0,258.32,121.24Z"/><path class="cls-1" d="M310.8,89.12v6h-8.24V120.8a7.14,7.14,0,0,0,.2,1.92,1.94,1.94,0,0,0,.76,1.12,3.29,3.29,0,0,0,1.56.52,22.56,22.56,0,0,0,2.6.12h3.12v6h-5.2a24.39,24.39,0,0,1-4.52-.36,6.59,6.59,0,0,1-3-1.32,5.58,5.58,0,0,1-1.72-2.72,15.48,15.48,0,0,1-.56-4.64V95.12h-7v-6h7V76.72h6.8v12.4Z"/><path class="cls-1" d="M324.48,89.12v8.72h.16a18.46,18.46,0,0,1,6.07-7.44,15.3,15.3,0,0,1,9.12-2.24v7.2a19.1,19.1,0,0,0-6.95,1.12,11,11,0,0,0-4.64,3.28,13.45,13.45,0,0,0-2.56,5.24,27.93,27.93,0,0,0-.8,7.08v18.4h-6.8V89.12Z"/><path class="cls-1" d="M381.59,130.31a9.53,9.53,0,0,1-4.88,1.05,5.85,5.85,0,0,1-4.2-1.48c-1-1-1.55-2.6-1.55-4.84a16.28,16.28,0,0,1-6.53,4.84,22.49,22.49,0,0,1-13.35.84,12.37,12.37,0,0,1-4.37-2,9.66,9.66,0,0,1-2.92-3.56,14,14,0,0,1,.13-11.08,10.33,10.33,0,0,1,3.16-3.64,14.54,14.54,0,0,1,4.47-2.12q2.54-.72,5.16-1.2c1.87-.37,3.64-.65,5.33-.84a29.49,29.49,0,0,0,4.43-.8,7.36,7.36,0,0,0,3-1.52,3.7,3.7,0,0,0,1.12-2.92,6.8,6.8,0,0,0-.84-3.6,5.66,5.66,0,0,0-2.16-2.08,8.73,8.73,0,0,0-3-1,22.28,22.28,0,0,0-3.24-.24,14.38,14.38,0,0,0-7.19,1.64q-2.88,1.64-3.12,6.2h-6.8a14.6,14.6,0,0,1,1.6-6.48,12.17,12.17,0,0,1,3.83-4.28,16.17,16.17,0,0,1,5.49-2.36,28.87,28.87,0,0,1,6.59-.72,38.21,38.21,0,0,1,5.56.4,14.44,14.44,0,0,1,5,1.64A9.54,9.54,0,0,1,376,93.67a11.16,11.16,0,0,1,1.35,5.83v21.23a16.19,16.19,0,0,0,.28,3.51c.19.75.82,1.12,1.88,1.12a6.62,6.62,0,0,0,2.08-.4Zm-11-21.27a8.39,8.39,0,0,1-3.35,1.4c-1.39.29-2.85.53-4.37.72s-3.05.4-4.59.64a16.93,16.93,0,0,0-4.16,1.16,7.46,7.46,0,0,0-3,2.28,6.34,6.34,0,0,0-1.16,4,5.55,5.55,0,0,0,.67,2.84,5.77,5.77,0,0,0,1.76,1.88,7.45,7.45,0,0,0,2.53,1,14.1,14.1,0,0,0,3,.32,16.09,16.09,0,0,0,5.75-.92,12,12,0,0,0,3.92-2.32,9.06,9.06,0,0,0,2.24-3,7.51,7.51,0,0,0,.72-3.08Z"/><path class="cls-1" d="M412.63,96.32a10.31,10.31,0,0,0-6.88-2.16,12.67,12.67,0,0,0-6.16,1.36,11.1,11.1,0,0,0-4,3.6,15.29,15.29,0,0,0-2.12,5.16,28.59,28.59,0,0,0-.64,6,23.15,23.15,0,0,0,.68,5.6,15.16,15.16,0,0,0,2.12,4.84,10.8,10.8,0,0,0,3.76,3.4,11.31,11.31,0,0,0,5.52,1.28q5,0,7.88-2.64a11.85,11.85,0,0,0,3.48-7.44h7q-1.11,7.68-5.72,11.84T405,131.36a21.64,21.64,0,0,1-8.36-1.52,16.22,16.22,0,0,1-6.08-4.32,18.84,18.84,0,0,1-3.68-6.68,28.1,28.1,0,0,1-1.24-8.52,30.35,30.35,0,0,1,1.2-8.68,20.22,20.22,0,0,1,3.64-7,17.18,17.18,0,0,1,6.12-4.72,20,20,0,0,1,8.56-1.72,25,25,0,0,1,6.6.84,16,16,0,0,1,5.44,2.6A14,14,0,0,1,421.11,96,16.16,16.16,0,0,1,423,102.4h-7A10.34,10.34,0,0,0,412.63,96.32Z"/><path class="cls-1" d="M431.27,81.68V73.36h6.8v8.32Zm6.8,7.44v41.36h-6.8V89.12Z"/><path class="cls-1" d="M447.67,101.32a19.23,19.23,0,0,1,3.84-6.88,18,18,0,0,1,6.32-4.6,23.16,23.16,0,0,1,17.32,0,18.17,18.17,0,0,1,6.28,4.6,19.23,19.23,0,0,1,3.84,6.88,27.65,27.65,0,0,1,1.28,8.52,27.25,27.25,0,0,1-1.28,8.48,19.31,19.31,0,0,1-3.84,6.84,17.7,17.7,0,0,1-6.28,4.56,23.68,23.68,0,0,1-17.32,0,17.59,17.59,0,0,1-6.32-4.56,19.31,19.31,0,0,1-3.84-6.84,27.25,27.25,0,0,1-1.28-8.48A27.65,27.65,0,0,1,447.67,101.32Zm6.92,15.2a14.08,14.08,0,0,0,2.76,4.88,11.89,11.89,0,0,0,4.12,3,12.54,12.54,0,0,0,10,0,11.89,11.89,0,0,0,4.12-3,14.08,14.08,0,0,0,2.76-4.88,22.81,22.81,0,0,0,0-13.36,14.46,14.46,0,0,0-2.76-4.92,11.75,11.75,0,0,0-4.12-3,12.54,12.54,0,0,0-10,0,11.75,11.75,0,0,0-4.12,3,14.46,14.46,0,0,0-2.76,4.92,22.81,22.81,0,0,0,0,13.36Zm14.2-47.64-7.68,13h5.12l11.28-13Z"/><path class="cls-1" d="M501,89.12v6.56h.16q4.25-7.52,13.44-7.52a17.87,17.87,0,0,1,6.8,1.12,11.27,11.27,0,0,1,4.4,3.12,11.53,11.53,0,0,1,2.36,4.76,25.77,25.77,0,0,1,.68,6.12v27.2H522v-28a8.22,8.22,0,0,0-2.24-6.08,8.34,8.34,0,0,0-6.16-2.24,13.86,13.86,0,0,0-5.4,1,10.14,10.14,0,0,0-3.8,2.72,11.83,11.83,0,0,0-2.28,4.12,16.62,16.62,0,0,0-.76,5.16v23.36h-6.8V89.12Z"/><path class="cls-1" d="M591.43,130.48v-5.6h-.16a10,10,0,0,1-5.28,5,20.22,20.22,0,0,1-7.92,1.52,18.69,18.69,0,0,1-8.36-1.76,17.2,17.2,0,0,1-5.92-4.72,20.63,20.63,0,0,1-3.56-6.88,28.27,28.27,0,0,1-1.2-8.32,29.3,29.3,0,0,1,1.16-8.32,19.65,19.65,0,0,1,3.52-6.84,17,17,0,0,1,5.92-4.64,18.76,18.76,0,0,1,8.28-1.72,20.48,20.48,0,0,1,3.44.32A17.08,17.08,0,0,1,585,89.56a15.53,15.53,0,0,1,3.48,2,11.06,11.06,0,0,1,2.76,3.08h.16V73.36h6.8v57.12ZM567,115.8a15.29,15.29,0,0,0,2.32,4.92,11.31,11.31,0,0,0,4,3.44,12.19,12.19,0,0,0,5.72,1.28,11.22,11.22,0,0,0,9.76-4.92,14.89,14.89,0,0,0,2.2-5,24.18,24.18,0,0,0,.68-5.68A23.8,23.8,0,0,0,591,104a14.58,14.58,0,0,0-2.28-5,11.68,11.68,0,0,0-4-3.48,12.6,12.6,0,0,0-6-1.32,11.65,11.65,0,0,0-5.84,1.36,10.89,10.89,0,0,0-3.84,3.6,15.7,15.7,0,0,0-2.08,5.12,27,27,0,0,0-.64,5.92A21,21,0,0,0,567,115.8Z"/><path class="cls-1" d="M638,127.84a18.75,18.75,0,0,1-11.68,3.52,21.19,21.19,0,0,1-8.6-1.6,16.94,16.94,0,0,1-6.12-4.48,19.1,19.1,0,0,1-3.72-6.88,33.15,33.15,0,0,1-1.4-8.72,24.86,24.86,0,0,1,1.44-8.64,20.74,20.74,0,0,1,4-6.8,18.38,18.38,0,0,1,6.16-4.48,18.73,18.73,0,0,1,7.8-1.6,17,17,0,0,1,9.16,2.28,18.08,18.08,0,0,1,5.84,5.8,22.91,22.91,0,0,1,3,7.68,32.73,32.73,0,0,1,.68,7.92h-31a16.54,16.54,0,0,0,.64,5.16,11.32,11.32,0,0,0,6.4,7.32,14,14,0,0,0,5.84,1.12,11.79,11.79,0,0,0,7.08-2,9.67,9.67,0,0,0,3.64-6.08H644Q642.63,124.32,638,127.84Zm-1.64-26.56a11.6,11.6,0,0,0-2.48-3.72,11.62,11.62,0,0,0-8.36-3.4,11.89,11.89,0,0,0-4.76.92,10.9,10.9,0,0,0-3.64,2.52,12.26,12.26,0,0,0-2.4,3.72,14.14,14.14,0,0,0-1,4.52h23.76A14.08,14.08,0,0,0,636.35,101.28Z"/><path class="cls-1" d="M683,73.36v57.12h-7.6V73.36Z"/><path class="cls-1" d="M701,89.12v6.56h.16q4.23-7.52,13.44-7.52a17.91,17.91,0,0,1,6.8,1.12,11.27,11.27,0,0,1,4.4,3.12,11.65,11.65,0,0,1,2.36,4.76,25.77,25.77,0,0,1,.68,6.12v27.2h-6.8v-28a8.22,8.22,0,0,0-2.24-6.08,8.35,8.35,0,0,0-6.16-2.24,13.86,13.86,0,0,0-5.4,1,10.14,10.14,0,0,0-3.8,2.72,11.51,11.51,0,0,0-2.28,4.12,16.62,16.62,0,0,0-.76,5.16v23.36h-6.8V89.12Z"/><path class="cls-1" d="M750.47,130.48,735.11,89.12h7.6l11.6,34.48h.16l11.28-34.48h7.12l-15.12,41.36Z"/><path class="cls-1" d="M808.39,127.84a18.77,18.77,0,0,1-11.68,3.52,21.16,21.16,0,0,1-8.6-1.6,16.94,16.94,0,0,1-6.12-4.48,18.81,18.81,0,0,1-3.72-6.88,32.75,32.75,0,0,1-1.4-8.72,24.86,24.86,0,0,1,1.44-8.64,20.57,20.57,0,0,1,4-6.8,18.28,18.28,0,0,1,6.16-4.48,18.73,18.73,0,0,1,7.8-1.6,17,17,0,0,1,9.16,2.28,18.18,18.18,0,0,1,5.84,5.8,23.12,23.12,0,0,1,3,7.68,33.24,33.24,0,0,1,.68,7.92h-31a16.25,16.25,0,0,0,.64,5.16,11.59,11.59,0,0,0,2.32,4.32,11.41,11.41,0,0,0,4.08,3,14,14,0,0,0,5.84,1.12,11.79,11.79,0,0,0,7.08-2,9.67,9.67,0,0,0,3.64-6.08h6.72Q813,124.32,808.39,127.84Zm-1.64-26.56a11.58,11.58,0,0,0-10.84-7.12,11.89,11.89,0,0,0-4.76.92,10.8,10.8,0,0,0-3.64,2.52,11.89,11.89,0,0,0-2.4,3.72,13.88,13.88,0,0,0-1,4.52h23.76A14.08,14.08,0,0,0,806.75,101.28Z"/><path class="cls-1" d="M828.47,89.12v6.56h.16q4.23-7.52,13.44-7.52a17.91,17.91,0,0,1,6.8,1.12,11.27,11.27,0,0,1,4.4,3.12,11.65,11.65,0,0,1,2.36,4.76,25.77,25.77,0,0,1,.68,6.12v27.2h-6.8v-28a8.22,8.22,0,0,0-2.24-6.08,8.35,8.35,0,0,0-6.16-2.24,13.86,13.86,0,0,0-5.4,1,10.14,10.14,0,0,0-3.8,2.72,11.51,11.51,0,0,0-2.28,4.12,16.62,16.62,0,0,0-.76,5.16v23.36h-6.8V89.12Z"/><path class="cls-1" d="M884.23,89.12v6H876V120.8a7.14,7.14,0,0,0,.2,1.92,1.94,1.94,0,0,0,.76,1.12,3.29,3.29,0,0,0,1.56.52,22.56,22.56,0,0,0,2.6.12h3.12v6H879a24.39,24.39,0,0,1-4.52-.36,6.59,6.59,0,0,1-3-1.32,5.58,5.58,0,0,1-1.72-2.72,15.48,15.48,0,0,1-.56-4.64V95.12h-7v-6h7V76.72H876v12.4Z"/><path class="cls-1" d="M928.39,130.31a9.56,9.56,0,0,1-4.88,1.05,5.84,5.84,0,0,1-4.2-1.48q-1.56-1.49-1.56-4.84a16.32,16.32,0,0,1-6.52,4.84,22.52,22.52,0,0,1-13.36.84,12.32,12.32,0,0,1-4.36-2,9.57,9.57,0,0,1-2.92-3.56,12,12,0,0,1-1.08-5.32,12.13,12.13,0,0,1,1.2-5.76,10.44,10.44,0,0,1,3.16-3.64,14.48,14.48,0,0,1,4.48-2.12q2.52-.72,5.16-1.2c1.86-.37,3.64-.65,5.32-.84a29.64,29.64,0,0,0,4.44-.8,7.42,7.42,0,0,0,3-1.52,3.74,3.74,0,0,0,1.12-2.92,6.8,6.8,0,0,0-.84-3.6,5.74,5.74,0,0,0-2.16-2.08,8.81,8.81,0,0,0-3-1,22.49,22.49,0,0,0-3.24-.24A14.42,14.42,0,0,0,901,95.8q-2.88,1.64-3.12,6.2h-6.8a14.6,14.6,0,0,1,1.6-6.48,12.1,12.1,0,0,1,3.84-4.28A16.12,16.12,0,0,1,902,88.88a28.9,28.9,0,0,1,6.6-.72,38.31,38.31,0,0,1,5.56.4,14.58,14.58,0,0,1,5,1.64,9.58,9.58,0,0,1,3.6,3.47,11.15,11.15,0,0,1,1.36,5.83v21.23a15.57,15.57,0,0,0,.28,3.51c.18.75.81,1.12,1.88,1.12a6.67,6.67,0,0,0,2.08-.4Zm-11-21.27a8.5,8.5,0,0,1-3.36,1.4c-1.39.29-2.84.53-4.36.72s-3.06.4-4.6.64a16.93,16.93,0,0,0-4.16,1.16,7.46,7.46,0,0,0-3,2.28,6.34,6.34,0,0,0-1.16,4,5.46,5.46,0,0,0,.68,2.84,5.67,5.67,0,0,0,1.76,1.88,7.32,7.32,0,0,0,2.52,1,14.17,14.17,0,0,0,3,.32,16.18,16.18,0,0,0,5.76-.92,12.19,12.19,0,0,0,3.92-2.32,9.2,9.2,0,0,0,2.24-3,7.68,7.68,0,0,0,.72-3.08Z"/><path class="cls-1" d="M940.87,89.12v8.72H941a18.46,18.46,0,0,1,6.07-7.44,15.26,15.26,0,0,1,9.12-2.24v7.2a19.16,19.16,0,0,0-7,1.12,11,11,0,0,0-4.64,3.28,13.58,13.58,0,0,0-2.55,5.24,27.91,27.91,0,0,0-.81,7.08v18.4h-6.8V89.12Z"/><path class="cls-1" d="M961.74,81.68V73.36h6.8v8.32Zm6.8,7.44v41.36h-6.8V89.12Z"/><path class="cls-1" d="M978.14,101.32A19.54,19.54,0,0,1,982,94.44a18,18,0,0,1,6.32-4.6,23.16,23.16,0,0,1,17.32,0,18.08,18.08,0,0,1,6.28,4.6,19.23,19.23,0,0,1,3.84,6.88,27.65,27.65,0,0,1,1.28,8.52,27.25,27.25,0,0,1-1.28,8.48,19.31,19.31,0,0,1-3.84,6.84,17.61,17.61,0,0,1-6.28,4.56,23.68,23.68,0,0,1-17.32,0,17.59,17.59,0,0,1-6.32-4.56,19.62,19.62,0,0,1-3.84-6.84,27.25,27.25,0,0,1-1.28-8.48A27.65,27.65,0,0,1,978.14,101.32Zm6.92,15.2a14.08,14.08,0,0,0,2.76,4.88,12,12,0,0,0,4.12,3,12.54,12.54,0,0,0,10,0,11.89,11.89,0,0,0,4.12-3,13.77,13.77,0,0,0,2.76-4.88,22.81,22.81,0,0,0,0-13.36,14.14,14.14,0,0,0-2.76-4.92,11.75,11.75,0,0,0-4.12-3,12.54,12.54,0,0,0-10,0,11.84,11.84,0,0,0-4.12,3,14.46,14.46,0,0,0-2.76,4.92,22.81,22.81,0,0,0,0,13.36Z"/><path class="cls-1" d="M1030.22,121.24a7.21,7.21,0,0,0,2.52,2.48,11.47,11.47,0,0,0,3.52,1.32,19.91,19.91,0,0,0,4,.4,24.82,24.82,0,0,0,3.36-.24,12.26,12.26,0,0,0,3.24-.88,6.06,6.06,0,0,0,2.44-1.88,5,5,0,0,0,1-3.16,4.54,4.54,0,0,0-2-4,16.89,16.89,0,0,0-5-2.2q-3-.84-6.52-1.52a33.3,33.3,0,0,1-6.52-1.92,13.55,13.55,0,0,1-5-3.48,9,9,0,0,1-2-6.24,9.93,9.93,0,0,1,1.4-5.36,11.38,11.38,0,0,1,3.6-3.64,16.56,16.56,0,0,1,5-2.08,23,23,0,0,1,5.48-.68,32.61,32.61,0,0,1,6.48.6,15,15,0,0,1,5.24,2.08,10.82,10.82,0,0,1,3.64,4,15.13,15.13,0,0,1,1.6,6.28h-6.8a6.89,6.89,0,0,0-1-3.32,6.78,6.78,0,0,0-2.24-2.12,10.34,10.34,0,0,0-3-1.16,15.42,15.42,0,0,0-3.32-.36,20.27,20.27,0,0,0-3.08.24,10.34,10.34,0,0,0-2.84.84,5.68,5.68,0,0,0-2.08,1.6,4.05,4.05,0,0,0-.8,2.6,3.82,3.82,0,0,0,1.24,2.92,10.06,10.06,0,0,0,3.16,1.92,27.69,27.69,0,0,0,4.32,1.28q2.4.52,4.8,1.08a51.06,51.06,0,0,1,5,1.36,16.1,16.1,0,0,1,4.32,2.12,10.39,10.39,0,0,1,3,3.32,9.79,9.79,0,0,1,1.16,5,11.5,11.5,0,0,1-1.56,6.24,12.19,12.19,0,0,1-4.08,4,17.1,17.1,0,0,1-5.68,2.12,33.63,33.63,0,0,1-6.28.6,29.12,29.12,0,0,1-6.56-.72,16.16,16.16,0,0,1-5.52-2.36A12,12,0,0,1,1024,124a15,15,0,0,1-1.6-6.52h6.8A7.63,7.63,0,0,0,1030.22,121.24Z"/></g></g></svg>